<svg width="192" height="192" viewBox="0 0 192 192" fill="none" xmlns="http://www.w3.org/2000/svg">
<path d="M46.0535 128.253C43.6934 131.254 36.1374 140.927 23.5408 147.929C14.8582 152.61 11.3327 154.611 10.2546 160.778C8.90464 168.451 12.9157 176.114 22.453 176.104C33.991 176.094 44.5578 165.411 47.0732 151.076C48.802 141.238 47.9765 132.584 47.3938 128.243H46.0535V128.253Z" fill="black"/>
<path d="M18.3828 120.114L20.0338 125.951C22.4618 125.455 24.6956 125.116 34.2329 125.096L168.707 124.95C170.212 124.95 171.271 124.591 171.533 123.057C171.679 122.221 171.319 121.386 170.824 120.386L163.715 103.72C163.142 102.224 161.889 101.729 160.889 101.729C159.383 101.729 158.344 102.894 157.664 103.895L147.991 120.91H145.981L152.701 82.5669L179.128 82.5378C180.303 82.5378 181.692 82.2076 181.983 80.5371C182.129 79.7019 181.274 78.8666 180.779 77.8663L171.368 61.8705C170.212 59.8698 168.542 59.8698 168.377 59.8698C167.036 59.8698 165.861 60.8799 165.152 62.0453L155.401 78.5558H153.391L159.82 41.883L177.885 41.8636C178.72 41.8636 180.391 41.8636 180.721 40.028C180.896 39.0277 180.206 38.1924 179.487 37.532L162.782 21.2157C162.2 20.7107 160.869 19.7104 159.869 19.7201C158.868 19.7201 157.557 20.5553 156.703 21.5557L143.3 37.9011L81.4144 37.9691C86.892 32.4623 87.5136 31.8019 89.7862 29.2962C94.2538 28.626 98.2163 27.9462 98.7699 24.7801C99.1196 22.7794 97.5074 22.4492 95.2541 21.9538L60.7179 15C55.046 33.0062 40.2642 59.19 24.0352 76.3706L24.8607 77.371C30.2898 75.0304 38.1178 71.3592 50.1705 63.6769L47.5385 78.6724H41.012C39.6717 78.6821 30.8143 78.6918 21.2575 77.8663L23.1028 83.5284C25.8708 83.0234 28.1046 82.6932 37.302 82.6835H46.8393L40.1088 121.085C36.0977 121.085 27.7355 121.085 18.373 120.104L18.3828 120.114ZM128.402 41.9316H134.258L127.829 78.5947H121.972L128.402 41.9316ZM121.273 82.6058H127.129L120.399 121.007H114.542L121.273 82.6058ZM103.48 41.951H109.337L102.907 78.6238H97.0509L103.48 41.951ZM96.3516 82.6252H102.208L95.4775 121.036H89.6211L96.3419 82.6252H96.3516ZM79.2292 41.9802H85.0856L78.6561 78.6433H72.8095L79.2389 41.9802H79.2292ZM72.1005 82.6544H77.9569L71.2361 121.056H65.3797L72.1102 82.6544H72.1005Z" fill="black"/>
<path d="M60.8363 127.903L59.3503 128.748C60.0496 135.245 60.4769 141.412 59.0104 149.745C58.7191 151.416 56.6504 159.409 56.359 161.089C54.7274 170.422 60.9917 173.744 66.5179 173.744C74.2196 173.734 82.5623 168.053 84.3493 157.884C87.3504 140.713 69.0333 131.739 60.846 127.913L60.8363 127.903Z" fill="black"/>
<path d="M91.5158 129.37L90.3115 130.535C94.0798 140.529 92.9435 149.862 92.3316 156.194C91.0399 168.354 91.7489 173.861 102.452 173.851C114.495 173.851 119.749 164.828 120.71 159.331C121.847 152.834 120.157 137.673 91.5158 129.37Z" fill="black"/>
<path d="M163.813 155.718C161.589 137.479 132.287 130.292 122.157 128.175L121.118 129.34C129.267 141.986 131.51 153.99 132.462 160.982C133.822 169.48 134.9 176.648 145.262 176.638C150.196 176.638 158.83 174.103 162.395 165.712C164.939 159.875 163.813 155.709 163.813 155.709V155.718Z" fill="black"/>
</svg>
